<svg width="946" height="119" viewBox="0 0 946 119" fill="none" xmlns="http://www.w3.org/2000/svg">
<path fill-rule="evenodd" clip-rule="evenodd" d="M69.2 95C85.5051 95 99.5317 85.2442 105.761 71.2513L138.4 90.2802V18.9197L105.473 38.1166C99.1068 24.4629 85.2585 15 69.2 15C53.1415 15 39.2932 24.4629 32.9272 38.1166L3.36054e-06 18.9197L0 90.2802L32.6392 71.2513C38.8683 85.2442 52.8949 95 69.2 95ZM32.2002 41.4H33.7002V67.8H32.2002V41.4ZM106.5 41.4H105V67.8H106.5V41.4Z" fill="#6D57FF"/>
<path d="M220.35 95.4C203.95 95.4 192.4 92.2 185.65 85.75C178.9 79.35 175.5 69.25 175.5 55.5C175.5 41.65 178.9 31.55 185.65 25.2C192.4 18.85 203.95 15.7 220.35 15.7C236.8 15.7 248 18.65 253.95 24.6C259.9 30.55 262.9 39.15 262.9 50.3H236.35C236.35 43.4 235.25 39.25 233.05 37.8C230.85 36.4 226.5 35.7 220 35.7C213.35 35.7 208.7 36.75 206.05 38.8C203.4 40.85 202.05 46.45 202.05 55.5C202.05 64.55 203.4 70.1 206.05 72.2C208.7 74.35 213.35 75.4 220 75.4C226.4 75.4 230.75 74.65 233 73.1C235.25 71.6 236.35 67.4 236.35 60.55H262.9C262.9 71.65 259.9 80.25 253.95 86.3C248 92.35 236.8 95.4 220.35 95.4ZM325.88 87.7L329.03 84.15L327.83 83.35C324.83 87.05 322.53 89.45 320.93 90.6C319.33 91.75 317.38 92.7 315.13 93.45C310.58 95.05 304.93 95.9 298.58 95.9C290.43 95.9 280.23 94.7 273.43 90.45C268.83 87.6 265.93 83.45 265.93 76.9C265.93 70.55 268.98 66.7 273.43 63.8C275.68 62.35 278.38 61.25 281.53 60.5C287.83 59 294.58 58.45 300.53 58.45H323.18V57.85C323.18 54.05 320.28 51.9 314.93 51.4C312.28 51.15 309.38 51.05 306.33 51.05C300.73 51.05 296.13 50.95 292.48 52.55C290.63 53.4 289.63 54.9 289.43 57.15H266.13C266.53 51.3 268.43 46.9 271.83 43.95C275.18 41 278.98 39 283.18 37.95C287.33 36.9 291.23 36.25 294.88 35.95C298.53 35.7 302.78 35.55 307.63 35.55C318.48 35.55 326.33 36.35 331.18 38C336.03 39.65 340.18 42.3 343.73 45.9C347.23 49.5 348.98 54.3 348.98 60.3V95H324.08V92.55C324.08 90.85 324.83 88.95 325.88 87.7ZM303.53 80.9C306.98 80.9 311.48 80.35 315.58 79.15C319.68 77.95 322.53 76.05 323.13 73.45L324.03 72.1H302.73C296.28 72.1 291.93 72.75 291.93 76.5C291.93 80.5 298.13 80.9 303.53 80.9ZM404.763 95V67.25C404.763 61 403.813 57 401.863 55.25C399.913 53.5 397.013 52.65 393.113 52.65C388.763 52.65 384.913 54.15 381.613 57.15C379.962 58.6 378.763 60.4 377.913 62.5V95H352.063V36.1H377.913V40.7C377.913 40.95 377.813 41.25 377.613 41.4L372.613 46.15L373.513 47.2L374.563 46.25L374.963 45.85C381.713 39 390.413 35.6 401.163 35.6H402.663C420.663 36.25 430.563 45.95 430.563 65.8V95H404.763ZM491.405 39.4V15.7H517.255V95H491.405V91.65C491.405 91.4 491.555 91.15 491.755 91.05L497.355 87.5L496.455 86.45L495.755 86.85C494.405 87.8 492.805 88.8 490.955 89.85C484.205 93.6 476.105 95.45 466.655 95.45H465.905C456.255 95.3 448.455 92.7 442.505 87.6C436.555 82.5 433.605 75.1 433.605 65.4C433.605 55.65 436.555 48.3 442.505 43.35C448.455 38.4 456.255 35.8 465.905 35.65H466.855C476.205 35.65 484.255 37.5 490.955 41.25C492.255 41.95 493.405 42.65 494.455 43.35L496.505 44.5L497.555 43.55L491.705 40C491.555 39.9 491.405 39.65 491.405 39.4ZM459.855 65.55C459.855 70.8 461.155 74.25 463.705 75.95C466.255 77.65 469.905 78.5 474.705 78.5C479.005 78.5 482.855 77.6 486.255 75.85C489.555 74.2 491.255 71.45 491.405 67.6V63.65C491.255 59.7 489.555 56.9 486.255 55.25C482.855 53.5 479.005 52.65 474.705 52.65C469.905 52.65 466.255 53.5 463.705 55.2C461.155 56.9 459.855 60.35 459.855 65.55ZM557.479 71.3L555.629 77.8H557.129L570.529 36.1H597.529L574.929 95C569.579 108.05 564.179 115.15 558.629 116.4C553.079 117.6 540.929 118.2 522.129 118.2V98.9C537.379 98.9 545.679 98.7 547.129 98.25C548.579 97.8 549.779 96.75 550.779 95H542.729L520.029 36.1H547.079L557.479 69.15C557.679 69.8 557.679 70.65 557.479 71.3ZM600.402 95V15.7H654.552C663.302 15.7 670.052 18.3 674.752 23.45C679.452 28.6 681.802 35.45 681.802 43.9C681.802 52.1 679.302 58.7 674.352 63.65C670.352 67.6 664.952 70 658.202 70.8L659.002 72.2L668.602 70.45L681.502 95H652.602L641.602 74.05V71.1H626.552V95H600.402ZM626.552 52.95H646.552C652.102 52.95 655.702 50.1 655.702 44.35C655.702 38.55 652.102 35.2 646.552 35.2H626.552V52.95ZM727.975 95.5C715.925 95.5 705.775 93.05 697.425 88.1C689.075 83.15 684.875 75.5 684.875 65.1C684.875 54.75 689.075 47.25 697.425 42.5C705.775 37.8 715.925 35.45 727.975 35.45C740.025 35.45 750.225 37.8 758.575 42.5C766.875 47.25 771.025 54.75 771.025 65.1C771.025 75.5 766.875 83.15 758.575 88.1C750.225 93.05 740.025 95.5 727.975 95.5ZM728.025 78.9C732.925 78.9 737.025 78.05 740.325 76.4C743.625 74.75 745.275 71.05 745.275 65.3C745.275 59.65 743.625 56 740.325 54.4C737.025 52.8 732.925 52 728.025 52C723.125 52 719.025 52.8 715.675 54.4C712.325 56 710.675 59.65 710.675 65.3C710.675 71.05 712.325 74.75 715.675 76.4C719.025 78.05 723.125 78.9 728.025 78.9ZM833.985 87.7L837.135 84.15L835.935 83.35C832.935 87.05 830.635 89.45 829.035 90.6C827.435 91.75 825.485 92.7 823.235 93.45C818.685 95.05 813.035 95.9 806.685 95.9C798.535 95.9 788.335 94.7 781.535 90.45C776.935 87.6 774.035 83.45 774.035 76.9C774.035 70.55 777.085 66.7 781.535 63.8C783.785 62.35 786.485 61.25 789.635 60.5C795.935 59 802.685 58.45 808.635 58.45H831.285V57.85C831.285 54.05 828.385 51.9 823.035 51.4C820.385 51.15 817.485 51.05 814.435 51.05C808.835 51.05 804.235 50.95 800.585 52.55C798.735 53.4 797.735 54.9 797.535 57.15H774.235C774.635 51.3 776.535 46.9 779.935 43.95C783.285 41 787.085 39 791.285 37.95C795.435 36.9 799.335 36.25 802.985 35.95C806.635 35.7 810.885 35.55 815.735 35.55C826.585 35.55 834.435 36.35 839.285 38C844.135 39.65 848.285 42.3 851.835 45.9C855.335 49.5 857.085 54.3 857.085 60.3V95H832.185V92.55C832.185 90.85 832.935 88.95 833.985 87.7ZM811.635 80.9C815.085 80.9 819.585 80.35 823.685 79.15C827.785 77.95 830.635 76.05 831.235 73.45L832.135 72.1H810.835C804.385 72.1 800.035 72.75 800.035 76.5C800.035 80.5 806.235 80.9 811.635 80.9ZM917.968 39.4V15.7H943.818V95H917.968V91.65C917.968 91.4 918.118 91.15 918.318 91.05L923.918 87.5L923.018 86.45L922.318 86.85C920.968 87.8 919.368 88.8 917.518 89.85C910.768 93.6 902.668 95.45 893.218 95.45H892.468C882.818 95.3 875.018 92.7 869.068 87.6C863.118 82.5 860.168 75.1 860.168 65.4C860.168 55.65 863.118 48.3 869.068 43.35C875.018 38.4 882.818 35.8 892.468 35.65H893.418C902.768 35.65 910.818 37.5 917.518 41.25C918.818 41.95 919.968 42.65 921.018 43.35L923.068 44.5L924.118 43.55L918.268 40C918.118 39.9 917.968 39.65 917.968 39.4ZM886.418 65.55C886.418 70.8 887.718 74.25 890.268 75.95C892.818 77.65 896.468 78.5 901.268 78.5C905.568 78.5 909.418 77.6 912.818 75.85C916.118 74.2 917.818 71.45 917.968 67.6V63.65C917.818 59.7 916.118 56.9 912.818 55.25C909.418 53.5 905.568 52.65 901.268 52.65C896.468 52.65 892.818 53.5 890.268 55.2C887.718 56.9 886.418 60.35 886.418 65.55Z" fill="#6D57FF"/>
</svg>
